<?xml version="1.0" standalone="no"?>
<!DOCTYPE svg PUBLIC "-//W3C//DTD SVG 20010904//EN"
 "http://www.w3.org/TR/2001/REC-SVG-20010904/DTD/svg10.dtd">
<svg version="1.0" xmlns="http://www.w3.org/2000/svg"
 width="500.000000pt" height="500.000000pt" viewBox="0 0 500.000000 500.000000"
 preserveAspectRatio="xMidYMid meet">
<metadata>
Created by potrace 1.14, written by Peter Selinger 2001-2017
</metadata>
<g transform="translate(0.000000,500.000000) scale(0.100000,-0.100000)"
fill="#000000" stroke="none">
<path d="M0 2500 l0 -2500 2500 0 2500 0 0 2500 0 2500 -2500 0 -2500 0 0
-2500z m2385 1350 c210 -36 238 -40 325 -39 64 1 115 -6 205 -29 66 -17 167
-40 225 -52 94 -20 113 -28 182 -77 65 -45 97 -60 198 -89 113 -32 122 -37
166 -84 28 -30 63 -56 92 -66 26 -10 92 -48 147 -85 117 -78 199 -170 244
-275 25 -58 35 -70 87 -103 83 -53 124 -108 141 -189 7 -37 25 -85 38 -108 13
-23 36 -79 49 -125 14 -46 36 -112 50 -145 33 -80 52 -171 66 -319 9 -100 8
-140 -5 -235 -9 -63 -23 -137 -32 -165 -11 -33 -17 -89 -17 -165 -2 -136 -6
-148 -125 -307 -70 -95 -80 -105 -136 -127 -82 -34 -164 -42 -205 -21 -17 9
-66 23 -108 31 -42 7 -111 29 -152 48 -56 25 -100 37 -175 46 -127 15 -181 41
-233 113 -36 47 -43 52 -83 55 -24 2 -53 9 -64 16 -18 12 -32 10 -108 -16 -57
-19 -119 -31 -175 -35 -64 -4 -100 -12 -137 -31 -47 -23 -56 -24 -153 -18 -99
6 -106 5 -147 -19 -59 -35 -124 -41 -208 -20 l-69 17 -61 -27 c-37 -17 -91
-31 -137 -36 -41 -4 -91 -13 -110 -19 -19 -6 -78 -11 -131 -11 -104 -1 -224
28 -320 77 -61 30 -151 114 -184 169 -15 27 -33 45 -44 45 -44 0 -91 79 -91
154 0 45 -10 56 -50 56 -10 0 -48 13 -84 29 -108 49 -233 88 -370 116 -254 52
-336 119 -336 278 0 34 -9 65 -32 110 -29 55 -32 71 -32 147 -1 83 1 87 47
171 l47 86 -11 56 c-21 101 30 216 130 294 46 36 49 42 55 95 9 75 42 118 147
192 46 33 104 78 129 101 25 22 61 53 81 68 39 29 183 76 235 77 21 0 40 10
65 36 85 89 195 132 301 118 44 -6 50 -4 85 26 20 18 67 47 103 64 60 29 73
31 172 31 l106 0 26 41 c14 22 34 48 43 56 46 42 163 48 338 18z"/>
<path d="M2144 3831 c-43 -11 -47 -15 -88 -70 l-35 -49 29 -10 c23 -9 43 -5
109 20 l80 30 188 -7 c184 -8 187 -8 143 -23 -28 -9 -108 -17 -210 -21 -155
-6 -168 -8 -218 -34 l-54 -28 -76 28 c-139 50 -274 32 -357 -48 -40 -38 -42
-39 -135 -45 -80 -5 -103 -11 -145 -35 -67 -39 -126 -95 -155 -146 -22 -41
-26 -43 -82 -49 -48 -6 -71 -15 -129 -56 -39 -27 -88 -67 -109 -88 -43 -43
-80 -108 -73 -127 5 -13 -78 -98 -186 -193 -57 -50 -64 -59 -68 -101 -6 -54 0
-60 69 -69 44 -6 47 -5 53 19 18 73 125 193 180 203 16 2 21 13 25 49 10 86
131 210 261 267 38 17 69 29 69 27 0 -3 -36 -30 -79 -60 -135 -94 -174 -142
-195 -236 -5 -25 -3 -27 41 -33 106 -14 119 -8 138 77 l12 52 7 -57 c4 -32 4
-67 1 -79 -11 -32 40 -71 75 -57 22 9 177 12 270 5 33 -2 35 0 55 53 l20 55 5
-65 c3 -36 16 -87 27 -115 12 -27 27 -79 33 -115 12 -68 49 -161 78 -194 16
-18 16 -18 -6 -7 -34 18 -69 77 -101 172 -38 115 -45 126 -91 149 -32 16 -59
20 -142 20 -93 0 -107 -2 -139 -25 -65 -44 -119 -223 -89 -295 10 -24 33 -41
110 -80 86 -45 160 -100 133 -100 -15 0 -111 35 -178 64 -76 34 -110 66 -131
127 l-18 49 -50 1 -51 0 51 20 c46 18 53 25 64 62 6 23 23 70 37 105 23 58 24
65 9 81 -27 30 -120 53 -182 45 -45 -5 -64 -14 -109 -52 -47 -40 -57 -55 -84
-130 -34 -92 -40 -176 -20 -258 9 -36 20 -51 50 -71 35 -23 45 -25 96 -19 l58
6 28 -82 c39 -116 85 -180 148 -207 67 -29 153 -44 206 -36 45 7 113 55 113
80 0 24 -70 74 -127 91 -42 12 -79 15 -140 11 -46 -2 -83 -4 -83 -2 0 1 16 10
36 20 27 13 61 17 125 16 100 -1 114 -6 226 -84 62 -43 78 -49 123 -50 53 -1
70 10 70 45 0 10 -36 59 -81 109 -82 93 -164 235 -188 327 -8 28 -20 46 -39
56 l-27 15 35 -5 c33 -6 36 -4 56 37 l21 44 -1 -75 c-1 -132 69 -281 174 -369
61 -52 98 -65 154 -57 67 10 80 32 71 113 -17 143 -12 186 25 245 65 102 81
142 87 220 5 70 4 75 -23 107 -36 43 -96 70 -154 71 -39 0 -48 4 -62 28 -9 15
-33 46 -53 70 -34 38 -41 42 -84 42 -60 0 -109 -31 -127 -80 l-12 -35 -1 43
c-1 37 4 48 37 78 37 35 38 35 106 30 66 -6 72 -9 132 -60 51 -43 78 -58 151
-81 48 -15 97 -36 107 -46 19 -18 21 -17 77 36 40 39 70 57 102 65 42 11 45
14 51 52 9 58 62 157 109 206 47 48 68 56 39 15 -55 -78 -113 -250 -89 -265 9
-6 8 -8 -3 -9 -61 -7 -113 -21 -136 -36 -13 -8 -42 -44 -64 -79 -33 -52 -40
-73 -40 -112 0 -69 -30 -149 -84 -222 -60 -81 -72 -121 -58 -198 14 -78 36
-112 71 -112 28 0 68 35 90 76 6 12 41 42 78 67 85 55 84 55 123 152 50 127
107 228 160 286 l50 54 -59 -95 c-32 -52 -68 -126 -81 -165 -55 -167 -95 -232
-169 -270 -51 -26 -61 -39 -61 -86 0 -24 4 -29 25 -29 37 0 169 47 256 90 81
41 112 71 155 150 15 28 29 49 31 47 1 -2 -10 -40 -27 -85 -16 -45 -26 -83
-22 -86 4 -2 26 -5 49 -7 37 -3 48 2 93 40 64 54 128 181 167 331 34 133 55
161 169 224 208 114 226 136 227 286 0 94 1 94 20 0 l13 -65 154 -2 c114 -1
175 -7 233 -21 l77 -19 0 37 c0 20 -7 59 -15 85 -8 27 -13 50 -11 52 8 8 65
-98 70 -133 6 -32 19 -53 61 -94 l53 -53 15 29 c8 16 18 49 22 74 l8 45 10
-30 c14 -44 23 -52 74 -64 25 -7 59 -19 76 -27 l30 -16 -34 47 c-47 66 -104
114 -212 179 -95 57 -178 85 -257 87 l-45 1 45 9 c25 6 62 8 83 7 l39 -4 -39
36 c-35 33 -47 37 -148 53 -107 17 -114 17 -227 -2 -92 -16 -133 -28 -199 -62
-134 -67 -165 -92 -194 -157 -28 -62 -70 -100 -195 -179 -69 -43 -164 -93
-177 -93 -4 0 42 36 102 81 61 44 134 104 163 132 54 53 102 130 102 166 0 11
5 23 10 26 6 3 10 -1 10 -9 0 -24 6 -21 76 34 74 58 85 64 174 85 36 9 83 21
104 26 l39 11 -48 41 c-44 38 -57 43 -131 54 -46 7 -160 30 -255 53 -190 45
-177 44 -335 40 -86 -1 -119 2 -142 14 -55 28 -196 49 -248 37z m726 -215 l65
-26 -72 6 c-96 8 -162 -8 -201 -49 -25 -27 -31 -42 -34 -95 -3 -41 -11 -71
-24 -89 -25 -33 -51 -44 -39 -17 17 41 17 110 1 142 -23 44 -97 85 -169 93
-54 7 -65 4 -130 -27 -76 -36 -97 -40 -113 -24 -15 15 -146 14 -192 -1 -20 -6
-71 -31 -112 -54 -160 -92 -293 -125 -396 -102 l-59 14 117 11 c131 14 168 25
252 76 79 48 189 100 251 120 39 13 65 14 120 7 59 -7 79 -5 125 11 59 21 164
20 269 -3 45 -9 54 -8 78 9 43 30 53 32 128 28 44 -3 94 -14 135 -30z m-769
-276 c-12 -68 -13 -99 -4 -130 11 -45 5 -50 -23 -19 -29 33 -27 151 4 202 13
20 27 37 31 37 4 0 0 -40 -8 -90z"/>
<path d="M970 3350 c-46 -23 -116 -74 -180 -130 -58 -51 -118 -102 -133 -114
-30 -22 -57 -74 -57 -108 0 -21 -3 -21 95 12 47 16 53 22 93 95 49 89 102 161
135 184 12 9 58 35 102 58 67 36 75 42 50 42 -16 0 -64 -17 -105 -39z"/>
<path d="M3333 3218 c-66 -9 -76 -13 -105 -46 -48 -55 -108 -98 -176 -125
-127 -52 -190 -133 -232 -297 -25 -96 -57 -185 -95 -259 l-27 -54 45 6 c60 8
141 40 211 82 32 19 61 35 64 35 15 0 -68 -74 -103 -92 -40 -21 -40 -21 -15
-31 45 -17 223 -37 338 -37 150 0 227 19 287 73 l46 40 -7 -29 c-8 -35 -32
-62 -102 -116 l-54 -42 80 -37 c103 -47 184 -103 252 -175 l55 -57 -64 52
c-90 74 -131 98 -249 148 -337 141 -600 180 -925 139 -301 -39 -563 -111 -784
-216 -116 -55 -156 -81 -304 -197 -88 -69 -114 -95 -153 -159 -53 -85 -78
-165 -69 -221 11 -75 50 -113 114 -113 l30 0 -20 -29 c-12 -16 -21 -32 -21
-36 0 -23 72 -103 130 -144 60 -42 86 -53 194 -80 134 -33 181 -37 234 -18
l33 12 -65 50 c-37 27 -66 50 -66 52 0 1 24 -11 54 -26 30 -16 87 -34 127 -41
69 -12 80 -11 181 15 98 24 113 26 159 15 82 -20 149 -9 214 34 l57 37 46 -15
c63 -22 148 -20 218 5 32 11 93 25 135 29 110 12 219 47 245 79 12 14 31 37
43 51 l21 25 -6 -51 c-6 -51 -6 -51 25 -57 84 -17 203 35 284 124 85 92 217
321 217 375 0 36 -569 53 -743 22 -97 -17 -180 -8 -244 25 -18 9 -51 17 -75
17 -52 0 -293 -24 -438 -45 -58 -8 -141 -17 -185 -21 -164 -12 -370 -66 -500
-131 -69 -35 -131 -105 -152 -173 l-17 -55 -7 50 c-3 28 -5 52 -3 55 1 3 -17
13 -41 23 -25 11 -45 26 -48 38 -5 19 -2 20 46 14 61 -8 87 1 149 48 47 36
211 102 328 132 154 39 172 46 165 63 -4 10 -13 39 -21 66 -12 44 -11 52 6 85
l19 36 1 -41 c1 -128 95 -176 259 -134 59 15 96 19 132 14 51 -7 292 13 319
27 9 4 21 27 27 52 8 27 19 46 30 50 10 2 27 8 37 13 19 7 19 6 -2 -27 -12
-20 -23 -50 -24 -69 -3 -30 1 -35 42 -57 49 -27 68 -27 285 -3 132 14 392 12
535 -5 69 -8 126 -15 127 -15 1 0 -2 12 -8 26 -9 26 -9 26 14 11 23 -15 27
-14 61 9 21 14 75 41 121 61 l83 35 32 74 c18 41 39 74 46 74 18 0 18 2 -7
-84 l-21 -73 -109 -54 -110 -54 -54 -90 c-56 -93 -92 -206 -80 -252 5 -20 12
-23 56 -23 49 0 53 -2 138 -79 75 -67 94 -79 135 -85 60 -9 80 3 132 81 51 76
83 168 91 257 5 70 -8 146 -27 146 -4 0 -28 -12 -54 -26 -59 -33 -59 -25 -1
17 66 48 88 88 81 147 -3 26 -9 92 -12 147 -4 69 -11 105 -22 118 -19 21 -36
22 -52 2 -9 -11 -32 -15 -79 -15 l-66 0 -19 -45 c-21 -53 -57 -90 -117 -124
l-44 -24 51 55 c49 55 94 146 94 191 -1 33 -53 84 -99 97 -29 7 -41 16 -41 29
0 10 2 20 5 23 12 12 126 -54 155 -91 39 -48 57 -54 107 -31 51 23 59 35 66
100 4 43 1 67 -16 110 -12 30 -26 62 -32 70 -9 14 -62 56 -92 73 -7 5 -44 -32
-97 -96 -69 -84 -92 -106 -124 -115 -40 -12 -52 -30 -52 -79 0 -27 -1 -27 -35
-11 -36 16 -34 59 6 92 17 14 40 26 51 26 53 0 119 71 168 183 16 37 20 58 14
92 -7 51 -40 83 -138 134 -49 26 -60 28 -93 19 -49 -13 -82 -39 -113 -87 -14
-22 -45 -68 -70 -102 -52 -73 -83 -155 -75 -196 l6 -28 -20 23 c-38 44 -37 84
4 151 20 33 51 78 69 100 18 21 39 59 45 84 11 39 20 49 62 72 l50 27 -34 46
c-50 68 -126 106 -241 121 -50 7 -98 14 -106 15 -8 2 -48 -1 -87 -6z m246
-182 c-2 -3 -39 -27 -82 -55 -42 -28 -77 -53 -77 -56 0 -3 15 -15 33 -26 l32
-21 -58 7 c-34 4 -87 1 -127 -6 -56 -10 -78 -20 -125 -57 -31 -24 -72 -68 -91
-96 -27 -40 -34 -46 -34 -28 0 79 113 184 231 213 44 12 96 34 129 56 49 32
190 90 169 69z m133 -751 c50 -34 137 -50 181 -34 18 6 43 26 57 44 14 18 26
32 28 30 9 -9 -40 -83 -68 -103 -27 -20 -39 -23 -78 -17 -125 19 -193 79 -191
171 l1 49 16 -58 c14 -46 24 -62 54 -82z m-355 -56 c43 -12 125 -46 183 -76
58 -30 98 -52 90 -50 -8 3 -76 26 -150 52 -134 48 -136 49 -265 49 -71 1 -150
-3 -175 -7 l-45 -8 20 20 c42 42 223 52 342 20z m-857 -473 c111 -82 261 -119
359 -90 l51 15 -15 36 c-8 20 -14 37 -12 39 1 1 25 -15 53 -37 98 -76 268 -83
482 -18 73 21 151 48 172 59 22 11 44 20 51 20 14 0 -66 -64 -140 -114 -29
-19 -63 -49 -75 -68 l-21 -33 -3 34 c-3 30 -6 33 -30 27 -15 -3 -79 -8 -142
-12 -96 -5 -130 -3 -208 15 l-92 21 -40 -20 c-27 -14 -59 -20 -102 -20 -63 0
-187 29 -236 54 -22 12 -32 10 -78 -11 -152 -70 -341 -68 -429 3 l-30 24 50
-15 c153 -47 304 -33 405 38 19 13 19 14 -11 55 -17 23 -28 42 -25 42 3 0 33
-20 66 -44z m-1059 -169 l-23 -22 17 28 c10 15 20 25 23 22 3 -3 -5 -16 -17
-28z m585 -52 c-20 -14 -41 -25 -46 -25 -26 0 -4 -20 48 -43 92 -42 153 -51
287 -43 133 7 193 19 339 65 55 17 101 29 103 27 4 -4 -212 -90 -307 -122 -44
-15 -86 -19 -210 -19 -179 1 -241 14 -314 70 -45 34 -46 34 -101 24 -70 -13
-112 -30 -192 -81 -69 -43 -139 -56 -164 -30 -10 10 -4 12 33 12 41 0 56 7
126 59 43 32 90 65 103 72 49 27 185 58 258 58 l74 1 -37 -25z"/>
<path d="M3892 3106 c-36 -38 -32 -53 16 -62 20 -4 67 -25 104 -47 73 -43 110
-91 122 -159 5 -29 14 -42 39 -54 18 -9 43 -25 57 -36 24 -19 24 -19 32 2 6
15 -5 46 -41 118 -27 53 -58 106 -70 116 l-21 19 11 -32 c20 -56 2 -45 -30 17
-34 68 -76 107 -144 132 l-46 17 -29 -31z"/>
<path d="M583 2938 c-53 -21 -103 -71 -151 -149 -35 -58 -25 -159 17 -159 55
0 86 46 73 107 -11 49 20 108 92 175 56 51 48 58 -31 26z"/>
<path d="M4281 2831 c41 -77 42 -82 30 -119 -11 -32 -10 -47 5 -97 9 -33 18
-89 19 -125 1 -65 20 -140 34 -140 5 0 13 24 19 53 8 39 7 86 -4 187 -22 193
-49 266 -113 303 l-32 19 42 -81z"/>
<path d="M564 2655 c-17 -11 -22 -29 -28 -97 -5 -57 -15 -101 -32 -138 -15
-31 -28 -82 -31 -116 -5 -57 -4 -63 25 -95 17 -19 52 -47 79 -61 67 -37 290
-108 337 -108 l39 0 -37 29 c-20 16 -69 39 -109 51 -124 37 -193 94 -238 195
-21 49 -18 105 7 126 11 9 13 1 13 -45 -1 -44 5 -67 28 -108 17 -29 41 -61 55
-71 14 -10 83 -40 154 -66 97 -36 145 -60 195 -98 78 -59 165 -92 266 -100
l71 -6 51 43 c49 41 80 98 66 120 -10 16 -22 4 -28 -27 -3 -16 -20 -39 -39
-53 -31 -23 -41 -24 -145 -24 -108 1 -113 2 -162 33 -28 18 -64 48 -81 67 -26
30 -83 139 -103 197 -5 12 -17 17 -45 17 -51 0 -122 37 -150 79 -35 53 -55
136 -49 202 l5 57 -37 6 c-50 8 -54 8 -77 -9z"/>
<path d="M442 2578 c-27 -13 -73 -92 -97 -167 -13 -40 -16 -73 -12 -125 5 -66
22 -126 36 -126 3 0 16 16 29 35 16 25 22 50 22 88 0 40 9 71 35 126 27 55 35
85 35 127 0 57 -6 62 -48 42z"/>
<path d="M4435 2418 c-4 -24 -17 -67 -30 -96 -23 -49 -23 -57 -13 -140 7 -58
8 -114 2 -163 -5 -41 -7 -86 -3 -100 4 -13 8 -53 9 -89 l1 -65 16 40 c12 28
17 79 19 170 1 72 6 210 10 308 7 172 3 221 -11 135z"/>
<path d="M4487 2273 c-4 -37 -4 -126 -1 -198 7 -159 -4 -235 -51 -333 -47
-100 -163 -291 -196 -324 -21 -21 -28 -41 -33 -91 -10 -88 -40 -123 -118 -138
-87 -17 -157 -5 -224 41 -34 23 -74 41 -101 45 -70 10 -119 31 -175 74 l-52
39 -43 -21 c-24 -12 -43 -25 -43 -30 0 -17 71 -77 121 -102 32 -17 65 -25 97
-25 52 0 130 -23 202 -60 25 -13 72 -29 104 -36 53 -11 69 -10 135 7 41 11 93
32 114 47 86 61 81 59 69 37 -16 -31 -73 -81 -117 -103 l-40 -21 45 -1 c74 0
154 62 245 190 41 58 54 87 60 128 4 28 5 52 2 52 -2 0 -24 -25 -48 -55 -43
-54 -63 -67 -36 -23 8 12 31 54 51 91 33 63 36 76 36 150 1 82 1 82 17 52 l16
-30 14 50 c21 72 28 294 14 427 -12 113 -37 228 -51 228 -4 0 -10 -30 -13 -67z"/>
<path d="M445 2121 c-4 -17 0 -43 9 -64 22 -53 69 -72 206 -85 185 -18 286
-49 388 -118 75 -51 93 -59 133 -59 26 0 51 3 54 7 4 4 -8 29 -27 55 -27 38
-52 57 -125 95 -90 47 -91 47 -156 40 -53 -7 -83 -4 -154 13 -121 29 -245 81
-279 116 -35 36 -41 36 -49 0z"/>
<path d="M390 2028 c0 -41 34 -111 66 -134 41 -30 142 -59 269 -79 115 -17
174 -35 340 -105 81 -33 104 -39 122 -31 32 15 31 51 -1 51 -22 0 -63 25 -188
114 -64 46 -276 96 -406 96 -70 0 -162 46 -190 95 -11 19 -11 18 -12 -7z"/>
<path d="M3729 1600 c-9 -14 -46 -59 -83 -100 -36 -41 -66 -80 -66 -86 0 -20
56 -64 101 -79 36 -12 55 -14 90 -5 44 10 44 10 84 -34 56 -62 116 -86 193
-77 80 9 107 29 116 82 4 23 2 56 -4 75 -10 30 -16 34 -60 40 -44 6 -56 13
-106 66 -57 60 -59 61 -148 79 -50 10 -92 19 -93 19 -1 0 -3 10 -5 22 l-3 22
-16 -24z"/>
</g>
</svg>
